<svg width="42" height="51" viewBox="0 0 42 51" fill="none" xmlns="http://www.w3.org/2000/svg">
<rect width="42" height="51" rx="21" fill="#F5F5DC"/>
<path fill-rule="evenodd" clip-rule="evenodd" d="M27.3003 20.4C27.3003 24.625 24.4797 28.05 21.0003 28.05C17.5209 28.05 14.7003 24.625 14.7003 20.4C14.7003 16.175 17.5209 12.75 21.0003 12.75C24.4797 12.75 27.3003 16.175 27.3003 20.4ZM25.2003 20.4C25.2003 23.2167 23.3199 25.5 21.0003 25.5C18.6807 25.5 16.8003 23.2167 16.8003 20.4C16.8003 17.5833 18.6807 15.3 21.0003 15.3C23.3199 15.3 25.2003 17.5833 25.2003 20.4Z" fill="#4F378A"/>
<path d="M21.0003 31.875C14.2022 31.875 8.40999 36.7562 6.20361 43.5949C6.7411 44.243 7.30731 44.856 7.89971 45.4309C9.54269 39.1523 14.6968 34.425 21.0003 34.425C27.3037 34.425 32.4578 39.1523 34.1008 45.4309C34.6932 44.856 35.2594 44.243 35.7969 43.5949C33.5905 36.7562 27.7984 31.875 21.0003 31.875Z" fill="#4F378A"/>
</svg>
