<svg width="47" height="49" viewBox="0 0 47 49" fill="none" xmlns="http://www.w3.org/2000/svg">
<g clip-path="url(#clip0_32_446)">
<path d="M1.95837 2.04166H9.79171L15.04 29.3796C15.2191 30.3196 15.7096 31.1639 16.4257 31.7649C17.1417 32.3658 18.0377 32.685 18.9567 32.6667H37.9917C38.9108 32.685 39.8067 32.3658 40.5228 31.7649C41.2388 31.1639 41.7293 30.3196 41.9084 29.3796L45.0417 12.25H11.75M19.5834 42.875C19.5834 44.0026 18.7066 44.9167 17.625 44.9167C16.5435 44.9167 15.6667 44.0026 15.6667 42.875C15.6667 41.7474 16.5435 40.8333 17.625 40.8333C18.7066 40.8333 19.5834 41.7474 19.5834 42.875ZM41.125 42.875C41.125 44.0026 40.2483 44.9167 39.1667 44.9167C38.0852 44.9167 37.2084 44.0026 37.2084 42.875C37.2084 41.7474 38.0852 40.8333 39.1667 40.8333C40.2483 40.8333 41.125 41.7474 41.125 42.875Z" stroke="#F5F5DC" stroke-width="4" stroke-linecap="round" stroke-linejoin="round"/>
</g>
<defs>
<clipPath id="clip0_32_446">
<rect width="47" height="49" fill="white"/>
</clipPath>
</defs>
</svg>
