<svg width="48" height="49" viewBox="0 0 48 49" fill="none" xmlns="http://www.w3.org/2000/svg">
<g clip-path="url(#clip0_173_245)">
<path d="M31.6 33.5L25.3 27.2C24.8 27.6 24.225 27.9167 23.575 28.15C22.925 28.3833 22.2333 28.5 21.5 28.5C19.6833 28.5 18.1458 27.8708 16.8875 26.6125C15.6292 25.3542 15 23.8167 15 22C15 20.1833 15.6292 18.6458 16.8875 17.3875C18.1458 16.1292 19.6833 15.5 21.5 15.5C23.3167 15.5 24.8542 16.1292 26.1125 17.3875C27.3708 18.6458 28 20.1833 28 22C28 22.7333 27.8833 23.425 27.65 24.075C27.4167 24.725 27.1 25.3 26.7 25.8L33 32.1L31.6 33.5ZM21.5 26.5C22.75 26.5 23.8125 26.0625 24.6875 25.1875C25.5625 24.3125 26 23.25 26 22C26 20.75 25.5625 19.6875 24.6875 18.8125C23.8125 17.9375 22.75 17.5 21.5 17.5C20.25 17.5 19.1875 17.9375 18.3125 18.8125C17.4375 19.6875 17 20.75 17 22C17 23.25 17.4375 24.3125 18.3125 25.1875C19.1875 26.0625 20.25 26.5 21.5 26.5Z" fill="#49454F"/>
</g>
<defs>
<clipPath id="clip0_173_245">
<rect x="4" y="4.5" width="40" height="40" rx="20" fill="white"/>
</clipPath>
</defs>
</svg>
